<?xml version="1.0" encoding="UTF-8" standalone="no"?>
<svg
   xmlns:dc="http://purl.org/dc/elements/1.1/"
   xmlns:cc="http://creativecommons.org/ns#"
   xmlns:rdf="http://www.w3.org/1999/02/22-rdf-syntax-ns#"
   xmlns:svg="http://www.w3.org/2000/svg"
   xmlns="http://www.w3.org/2000/svg"
   width="196mm"
   height="91mm"
   viewBox="0 0 196 91"
   version="1.1"
   id="svg8">
  <defs
     id="defs2" />
  <metadata
     id="metadata5">
    <rdf:RDF>
      <cc:Work
         rdf:about="">
        <dc:format>image/svg+xml</dc:format>
        <dc:type
           rdf:resource="http://purl.org/dc/dcmitype/StillImage" />
        <dc:title></dc:title>
      </cc:Work>
    </rdf:RDF>
  </metadata>
  <g
     id="layer1">
    <path
       style="fill:#ff9702;stroke:none;stroke-width:0.202059"
       d="M 1.0077384,1.1371658 V 79.940193 H 73.748996 V 76.909312 H 4.0386236 V 4.1680556 H 191.95351 V 76.909312 h -69.71038 v 3.030881 h 72.74126 V 1.1371658 H 1.0077384 M 66.878988,25.384242 v 20.40797 h 4.24324 c 0,-2.65586 -0.795305,-6.86354 0.357442,-9.29472 1.05293,-2.22123 4.134937,-2.78114 5.557231,-0.60516 1.497459,2.29054 0.551217,7.2426 0.551217,9.89988 h 4.24324 c 0,-5.05572 1.726595,-13.98511 -5.253536,-14.89398 -0.811065,-0.10547 -1.624757,-0.0552 -2.424708,0.10487 -1.165679,0.23318 -2.092726,0.73813 -3.030886,1.45321 v -7.07207 h -4.24324 m 71.326812,1.09678 c -1.81086,0.25945 -3.53967,0.75934 -5.05148,1.82096 -4.65201,3.26669 -5.34184,10.52384 -1.37926,14.64322 2.28469,2.3752 6.03288,3.4249 9.25956,2.96259 1.73428,-0.24853 3.3952,-0.73348 4.84942,-1.74013 8.80513,-6.09613 2.32287,-19.11924 -7.67824,-17.68664 m -17.98326,0.11558 v 19.19561 h 4.4453 v -19.19561 h -4.4453 m 18.38737,3.69768 c 7.69462,-1.1093 9.72794,10.68913 2.0206,11.80025 -7.7221,1.11314 -9.73359,-10.68832 -2.0206,-11.80025 m -87.693588,2.36409 v -1.61647 h -4.041181 v 20.00385 h 4.24324 v -6.66795 c 1.198008,0.9133 2.510382,1.54615 4.041181,1.60839 1.151737,0.0467 2.368738,-0.17862 3.435004,-0.61709 8.085797,-3.32448 3.659492,-16.20736 -4.849417,-14.32417 -1.144463,0.25338 -1.974723,0.8345 -2.828827,1.61344 m 52.939438,8.8906 -1.21236,3.03089 c 3.21779,1.24791 6.73241,2.02766 10.10295,0.78944 2.24468,-0.8248 3.79488,-3.25214 2.82701,-5.63886 -1.42674,-3.51805 -5.79849,-1.56879 -8.01528,-3.57705 -1.04929,-0.95049 0.49525,-1.85975 1.34915,-2.01413 1.76438,-0.31844 3.51199,0.35906 5.05148,1.14588 l 1.41441,-3.23295 c -2.98966,-1.15335 -6.42325,-1.80721 -9.49677,-0.51222 -2.30166,0.96948 -3.78477,3.80619 -2.40653,6.16685 1.68457,2.8858 5.43095,1.26852 7.62915,2.97895 1.16729,0.90806 -0.21742,1.9038 -1.18144,2.03737 -2.19739,0.30409 -3.99168,-0.81774 -6.06177,-1.17417 M 84.458126,31.041902 c 1.34834,3.47521 2.911873,6.88233 4.38852,10.30501 0.520302,1.20609 1.822573,3.11777 1.72417,4.4451 -0.201857,2.72759 -3.200413,1.64072 -4.698277,1.21256 l -1.414413,3.03088 c 2.75063,1.5993 6.416587,1.7854 8.645505,-0.80904 1.463102,-1.70296 2.168276,-4.22364 3.043593,-6.26303 1.702541,-3.96702 3.443269,-7.92799 5.081766,-11.92148 h -4.243222 l -4.041167,9.90089 -2.831044,-6.87001 -1.351371,-2.82316 -4.30406,-0.20772 m -30.1068,3.29679 c 4.984999,-0.61264 5.688973,7.55701 0.808236,8.15672 -4.97429,0.61123 -5.680082,-7.55822 -0.808236,-8.15672 m 32.733567,35.29649 c -4.366698,0 -4.24324,2.0901 -4.24324,5.85971 -0.83026,0 -1.89491,-0.15235 -2.539074,0.49182 -0.875926,0.87592 -0.851679,4.250911 0.160435,5.015911 0.648003,0.48959 1.61627,0.35199 2.378639,0.35199 0,3.76961 -0.123458,5.85971 4.24324,5.85971 0.0586,2.74073 4.14605,4.23374 5.974078,1.99857 1.294992,-1.58334 0.491808,-5.88376 0.491808,-7.85828 h 8.890561 c 0,1.98058 -0.78985,6.16724 0.40594,7.81382 1.72154,2.37016 6.00176,0.75954 6.05995,-1.95411 4.3665,0 4.24324,-2.0901 4.24324,-5.85971 0.76237,0 1.73064,0.1376 2.37864,-0.35199 1.01212,-0.765 1.03636,-4.139991 0.16044,-5.015911 -0.64417,-0.64417 -1.70882,-0.49182 -2.53908,-0.49182 0,-3.76961 0.12326,-5.85971 -4.24324,-5.85971 -0.0582,-2.71365 -4.33841,-4.32427 -6.05995,-1.95411 -1.19579,1.64658 -0.40594,5.83324 -0.40594,7.81382 h -8.890561 c 0,-1.9531 0.807624,-6.29919 -0.491808,-7.85343 -1.855306,-2.21921 -5.915076,-0.75812 -5.974078,1.99372 m 2.050496,-1.29257 c 0.633657,-0.27662 2.512806,-0.35158 2.879142,0.36997 0.51343,1.01191 0.12184,3.03392 0.12184,4.15555 v 10.507071 c 0,1.00666 0.54495,4.58694 -0.468374,5.10361 -0.725392,0.36976 -2.67405,0.36754 -3.046849,-0.48616 -0.504743,-1.15598 -0.121841,-3.16546 -0.121841,-4.41539 V 73.272242 c 0,-1.08627 -0.557077,-4.40852 0.636082,-4.92963 m 15.356451,-0.0342 c 0.7559,-0.24489 2.50371,-0.31097 2.87914,0.54839 0.50474,1.15598 0.12184,3.16546 0.12184,4.41539 v 10.305021 c 0,1.1485 0.5989,4.59745 -0.82016,4.98722 -0.64841,0.17801 -2.33317,0.28531 -2.69506,-0.42756 -0.51343,-1.01191 -0.12184,-3.03392 -0.12184,-4.15555 V 73.474302 c 0,-1.05373 -0.57607,-4.77324 0.63608,-5.16584 m -17.406947,2.74113 v 14.750321 c -0.824401,0 -2.077773,0.21479 -2.678899,-0.49182 -0.628201,-0.73852 -0.354815,-2.24568 -0.351784,-3.14525 0.0077,-2.424711 0.01778,-4.850421 4.04e-4,-7.274931 -0.0065,-0.91957 -0.261667,-2.36935 0.237621,-3.18607 0.542529,-0.88744 1.910671,-0.65225 2.792658,-0.65225 M 108.90723,85.799913 V 71.049592 c 0.8244,0 2.07778,-0.21478 2.6789,0.49182 0.6282,0.73852 0.35482,2.24568 0.35179,3.14525 -0.008,2.42471 -0.0178,4.85043 -4.1e-4,7.274931 0.006,0.91957 0.26167,2.36935 -0.23762,3.18607 -0.54253,0.88744 -1.91067,0.65225 -2.79266,0.65225 m -27.682049,-5.85972 v -3.030881 c 2.241643,0.0265 2.241643,3.004211 0,3.030881 m 12.793975,-2.909041 c 0.585767,-0.28814 1.523511,-0.12184 2.158378,-0.12184 1.688601,0 4.008026,-0.41665 5.627726,0.0642 0.83087,0.24672 0.94624,2.2566 0.31218,2.75892 -0.45928,0.363701 -1.3546,0.207711 -1.89875,0.207711 -1.636261,2.1e-4 -4.728153,0.60214 -6.199534,-0.121841 -0.719937,-0.35421 -0.719937,-2.43299 0,-2.7872 m 20.747794,-0.12184 v 3.030881 c -2.24165,-0.0267 -2.24185,-3.004411 0,-3.030881 z"
       id="path876" />
  </g>
</svg>
